<svg xmlns="http://www.w3.org/2000/svg" version="1.1" xmlns:xlink="http://www.w3.org/1999/xlink" xmlns:svgjs="http://svgjs.dev/svgjs" width="1500" height="428" viewBox="0 0 1500 428"><g transform="matrix(1,0,0,1,-0.9090909090909918,0.7655407742118996)"><svg viewBox="0 0 396 113" data-background-color="#ffffff" preserveAspectRatio="xMidYMid meet" height="428" width="1500" xmlns="http://www.w3.org/2000/svg" xmlns:xlink="http://www.w3.org/1999/xlink"><g id="tight-bounds" transform="matrix(1,0,0,1,0.2400000000000091,-0.20211707356529018)"><svg viewBox="0 0 395.52 113.40423414713055" height="113.40423414713055" width="395.52"><g><svg viewBox="0 0 686.4134157995943 196.80973838761346" height="113.40423414713055" width="395.52"><g><svg viewBox="0 0 395.52000000000004 196.80973838761346" height="196.80973838761346" width="395.52000000000004"><g id="textblocktransform"><svg viewBox="0 0 395.52000000000004 196.80973838761346" height="196.80973838761346" width="395.52000000000004" id="textblock"><g><svg viewBox="0 0 395.52000000000004 196.80973838761346" height="196.80973838761346" width="395.52000000000004"><g transform="matrix(1,0,0,1,0,0)"><svg width="395.52000000000004" viewBox="3.44 -39.5 91.45 45.51" height="196.80973838761346" data-palette-color="#ffffff"><path d="M47.07-16.46L47.07-16.46Q47.07-13.55 46.39-10.4 45.7-7.25 44.47-4.26 43.24-1.27 41.5 1.39 39.77 4.05 37.65 6.01L37.65 6.01 34.55 4.32Q35.25 3.05 35.84 1.46 36.43-0.12 36.91-1.88 37.4-3.64 37.77-5.49 38.13-7.35 38.39-9.19 38.65-11.04 38.77-12.77 38.89-14.5 38.89-16.02L38.89-16.02Q38.89-16.87 38.84-17.87 38.79-18.87 38.64-19.87 38.48-20.87 38.16-21.79 37.84-22.71 37.29-23.43 36.74-24.15 35.93-24.57 35.11-25 33.96-25L33.96-25Q32.84-25 32.04-24.4 31.25-23.8 30.69-22.85 30.13-21.9 29.8-20.7 29.47-19.51 29.3-18.3 29.13-17.09 29.06-15.99 29-14.89 29-14.14L29-14.14 29 0 20.78 0 20.78-13.13Q20.78-13.99 20.8-15.2 20.83-16.41 20.74-17.72 20.65-19.04 20.42-20.35 20.19-21.66 19.69-22.68 19.19-23.71 18.33-24.35 17.48-25 16.19-25L16.19-25Q15.09-25 14.34-24.39 13.6-23.78 13.1-22.81 12.6-21.85 12.32-20.64 12.04-19.43 11.9-18.23 11.77-17.02 11.74-15.93 11.72-14.84 11.72-14.14L11.72-14.14 11.72 0 3.44 0 3.44-28.2 6.62-28.2 9.64-21.63Q10.67-25.05 12.88-26.97 15.09-28.88 18.75-28.88L18.75-28.88Q22.05-28.88 24.22-27.51 26.39-26.15 27.64-23.07L27.64-23.07Q28.34-24.41 29.21-25.49 30.08-26.56 31.14-27.32 32.2-28.08 33.5-28.48 34.79-28.88 36.35-28.88L36.35-28.88Q39.23-28.88 41.27-27.94 43.31-27 44.6-25.34 45.9-23.68 46.48-21.4 47.07-19.12 47.07-16.46ZM61.23-35.01L61.23-35.01Q61.23-34.08 60.87-33.25 60.52-32.42 59.91-31.81 59.3-31.2 58.47-30.85 57.64-30.49 56.71-30.49L56.71-30.49Q55.78-30.49 54.97-30.85 54.15-31.2 53.54-31.81 52.93-32.42 52.57-33.25 52.22-34.08 52.22-35.01L52.22-35.01Q52.22-35.94 52.57-36.76 52.93-37.57 53.54-38.18 54.15-38.79 54.97-39.15 55.78-39.5 56.71-39.5L56.71-39.5Q57.64-39.5 58.47-39.15 59.3-38.79 59.91-38.18 60.52-37.57 60.87-36.76 61.23-35.94 61.23-35.01ZM60.86-28.17L60.86 0 52.59 0 52.59-28.17 60.86-28.17ZM74.56-13.38L74.56-13.38Q76.07-13.04 77.58-12.84 79.1-12.65 80.63-12.65L80.63-12.65Q82.25-12.65 83.63-12.95 85-13.26 86.02-13.98 87.03-14.7 87.62-15.89 88.2-17.09 88.2-18.87L88.2-18.87Q88.2-20.31 87.81-21.51 87.42-22.71 86.65-23.56 85.88-24.41 84.76-24.89 83.64-25.37 82.15-25.37L82.15-25.37Q80.76-25.37 79.65-24.85 78.54-24.34 77.69-23.47 76.85-22.61 76.25-21.46 75.65-20.31 75.26-19.07 74.87-17.82 74.7-16.55 74.53-15.28 74.53-14.16L74.53-14.16Q74.53-13.96 74.53-13.77 74.53-13.57 74.56-13.38ZM94.89-18.95L94.89-18.95Q94.89-17.21 94.33-15.86 93.77-14.5 92.81-13.48 91.84-12.45 90.57-11.74 89.3-11.04 87.86-10.58 86.42-10.13 84.89-9.94 83.37-9.74 81.93-9.74L81.93-9.74Q80.1-9.74 78.32-10 76.53-10.25 74.8-10.82L74.8-10.82Q75.07-9.2 75.65-7.75 76.24-6.3 77.22-5.21 78.19-4.13 79.62-3.49 81.05-2.86 83-2.86L83-2.86Q84.3-2.86 85.47-3.25 86.64-3.64 87.62-4.35 88.59-5.05 89.34-6.03 90.08-7.01 90.55-8.2L90.55-8.2 94.11-6.88Q93.31-4.96 91.9-3.55 90.5-2.15 88.73-1.23 86.96-0.32 84.97 0.12 82.98 0.56 81.03 0.56L81.03 0.56Q77.8 0.56 75.07-0.52 72.33-1.61 70.36-3.56 68.38-5.52 67.26-8.23 66.13-10.94 66.13-14.16L66.13-14.16Q66.13-17.38 67.26-20.09 68.38-22.8 70.36-24.76 72.33-26.71 75.07-27.8 77.8-28.88 81.03-28.88L81.03-28.88Q82.59-28.88 84.22-28.66 85.86-28.44 87.4-27.97 88.94-27.49 90.3-26.73 91.67-25.98 92.68-24.87 93.7-23.75 94.29-22.29 94.89-20.83 94.89-18.95Z" opacity="1" transform="matrix(1,0,0,1,0,0)" fill="#ffffff" class="wordmark-text-0" data-fill-palette-color="primary" id="text-0"></path></svg></g></svg></g></svg></g></svg></g><g transform="matrix(1,0,0,1,441.98205579959426,0.11080360331877159)"><svg viewBox="0 0 244.43136000000004 196.58813118097592" height="196.58813118097592" width="244.43136000000004"><g><svg xmlns="http://www.w3.org/2000/svg" xmlns:xlink="http://www.w3.org/1999/xlink" version="1.1" x="0" y="0" viewBox="0 9.786 100.00034525290006 80.42699999999999" enable-background="new 0 0 100 100" xml:space="preserve" width="244.43136000000004" height="196.58813118097592" class="icon-icon-0" data-fill-palette-color="accent" id="icon-0"><path d="M49.942 52.994c13.552-0.488 27.103-0.977 40.653-1.465-2.527-4.177-3.159-7.831-7.989-8.461-7.229-0.94-14.458-1.883-21.688-2.826-14.023-1.827-28.05-3.654-42.075-5.48C20.101 36.792 39.724 53.361 49.942 52.994z" fill="#ffffff" data-fill-palette-color="accent"></path><path d="M0 9.786c4.391 7.257 26.615 23.072 32.953 23.886 17.33 2.231 34.657 4.46 51.986 6.688-3.393-5.607-4.18-9.35-10.312-10.959-8.904-2.341-17.812-4.683-26.717-7.023C31.94 18.182 15.97 13.984 0 9.786z" fill="#ffffff" data-fill-palette-color="accent"></path><path d="M63.108 66.207c10.413-2.219 20.826-4.439 31.241-6.66-2.028-3.346-2.034-5.359-5.827-5.189-6.158 0.273-12.314 0.549-18.471 0.822-11.343 0.506-22.686 1.014-34.028 1.518C37.298 58.064 54.94 67.947 63.108 66.207z" fill="#ffffff" data-fill-palette-color="accent"></path><path d="M87.682 90.213c5.725-3.719 7.262-7.721 10.519-13.807 3.651-6.824 1.257-7.844-2.821-14.596-0.417-0.688-5.842 0.232-6.453 0.904-0.745 0.818-0.248 5.455-0.294 6.496C88.315 76.211 87.998 83.213 87.682 90.213z" fill="#ffffff" data-fill-palette-color="accent"></path><path d="M86.35 63.447c-3.795 0.809-8.604 0.191-9.572 4.229-1.373 5.736-2.746 11.475-4.12 17.211C81.904 82.678 86.028 71.582 86.35 63.447z" fill="#ffffff" data-fill-palette-color="accent"></path><path d="M74.666 66.121c-9.148 1.953-8.956 4.611-12.879 13.18C68.007 78.711 73.811 71.941 74.666 66.121z" fill="#ffffff" data-fill-palette-color="accent"></path></svg></g></svg></g></svg></g><defs></defs></svg><rect width="395.52" height="113.40423414713055" fill="none" stroke="none" visibility="hidden"></rect></g></svg></g></svg>